<svg width="45" height="42" viewBox="0 0 45 42" fill="none" xmlns="http://www.w3.org/2000/svg">
<path fill-rule="evenodd" clip-rule="evenodd" d="M30.8682 1C37.687 1 43.2155 9.059 43.2155 19V41H37.0418V19C37.0418 18.121 36.9894 17.26 36.906 16.414C35.3556 18.0607 33.1649 18.999 30.8682 19C27.4586 19 24.6946 16.3137 24.6946 13V7C24.6946 5.4087 25.345 3.88258 26.5028 2.75736C27.6606 1.63214 29.2309 1 30.8682 1Z" stroke="#161C2D" stroke-width="2" stroke-linecap="round" stroke-linejoin="round"/>
<path fill-rule="evenodd" clip-rule="evenodd" d="M12.3473 1C5.52849 1 0 9.059 0 19V41H6.17363V19C6.17363 18.121 6.22611 17.26 6.30945 16.414C7.85991 18.0607 10.0506 18.999 12.3473 19C15.7569 19 18.5209 16.3137 18.5209 13V7C18.5209 3.68629 15.7569 1 12.3473 1Z" stroke="#161C2D" stroke-width="2" stroke-linecap="round" stroke-linejoin="round"/>
<path d="M12.3472 8V12" stroke="#161C2D" stroke-width="2" stroke-linecap="round" stroke-linejoin="round"/>
<path d="M30.8682 8V12" stroke="#161C2D" stroke-width="2" stroke-linecap="round" stroke-linejoin="round"/>
</svg>
