<svg width="140" height="19" viewBox="0 0 140 19" fill="none" xmlns="http://www.w3.org/2000/svg">
<path d="M1.28 18C1.104 18 0.96 17.944 0.848 17.832C0.736 17.72 0.68 17.576 0.68 17.4V1.8C0.68 1.624 0.736 1.48 0.848 1.368C0.96 1.256 1.104 1.2 1.28 1.2H12.488C12.664 1.2 12.808 1.256 12.92 1.368C13.032 1.48 13.088 1.624 13.088 1.8V4.056C13.088 4.232 13.032 4.376 12.92 4.488C12.808 4.6 12.664 4.656 12.488 4.656H4.832V7.896H11.96C12.136 7.896 12.28 7.96 12.392 8.088C12.504 8.2 12.56 8.344 12.56 8.52V10.608C12.56 10.768 12.504 10.912 12.392 11.04C12.28 11.152 12.136 11.208 11.96 11.208H4.832V14.544H12.68C12.856 14.544 13 14.6 13.112 14.712C13.224 14.824 13.28 14.968 13.28 15.144V17.4C13.28 17.576 13.224 17.72 13.112 17.832C13 17.944 12.856 18 12.68 18H1.28ZM19.3548 18.24C18.4908 18.24 17.7148 18.08 17.0268 17.76C16.3548 17.424 15.8188 16.976 15.4188 16.416C15.0188 15.856 14.8188 15.224 14.8188 14.52C14.8188 13.384 15.2828 12.488 16.2108 11.832C17.1388 11.16 18.3708 10.704 19.9068 10.464L22.9068 10.008V9.672C22.9068 9.096 22.7868 8.656 22.5468 8.352C22.3068 8.048 21.8668 7.896 21.2268 7.896C20.7788 7.896 20.4108 7.984 20.1228 8.16C19.8508 8.336 19.6348 8.576 19.4748 8.88C19.3308 9.088 19.1308 9.192 18.8748 9.192H16.1868C16.0108 9.192 15.8748 9.144 15.7788 9.048C15.6828 8.936 15.6428 8.808 15.6588 8.664C15.6588 8.376 15.7628 8.048 15.9708 7.68C16.1948 7.296 16.5308 6.92 16.9788 6.552C17.4268 6.184 18.0028 5.88 18.7068 5.64C19.4108 5.4 20.2588 5.28 21.2508 5.28C22.2908 5.28 23.1788 5.4 23.9148 5.64C24.6508 5.88 25.2428 6.216 25.6908 6.648C26.1548 7.08 26.4988 7.592 26.7228 8.184C26.9468 8.76 27.0588 9.4 27.0588 10.104V17.4C27.0588 17.576 26.9948 17.72 26.8668 17.832C26.7548 17.944 26.6188 18 26.4588 18H23.6748C23.4988 18 23.3548 17.944 23.2428 17.832C23.1308 17.72 23.0748 17.576 23.0748 17.4V16.56C22.8668 16.864 22.5868 17.144 22.2348 17.4C21.8828 17.656 21.4668 17.856 20.9868 18C20.5228 18.16 19.9788 18.24 19.3548 18.24ZM20.4828 15.504C20.9468 15.504 21.3628 15.408 21.7308 15.216C22.1148 15.008 22.4108 14.696 22.6188 14.28C22.8428 13.848 22.9548 13.312 22.9548 12.672V12.336L20.9148 12.696C20.1628 12.824 19.6108 13.024 19.2588 13.296C18.9228 13.552 18.7548 13.856 18.7548 14.208C18.7548 14.48 18.8348 14.712 18.9948 14.904C19.1548 15.096 19.3628 15.248 19.6188 15.36C19.8748 15.456 20.1628 15.504 20.4828 15.504ZM30.2337 18C30.0577 18 29.9137 17.944 29.8017 17.832C29.6897 17.72 29.6337 17.576 29.6337 17.4V6.12C29.6337 5.96 29.6897 5.824 29.8017 5.712C29.9137 5.584 30.0577 5.52 30.2337 5.52H32.9937C33.1697 5.52 33.3137 5.584 33.4257 5.712C33.5377 5.824 33.5937 5.96 33.5937 6.12V7.08C34.0257 6.584 34.5377 6.2 35.1297 5.928C35.7377 5.656 36.4177 5.52 37.1697 5.52H38.2257C38.3857 5.52 38.5217 5.576 38.6337 5.688C38.7617 5.8 38.8257 5.944 38.8257 6.12V8.592C38.8257 8.752 38.7617 8.896 38.6337 9.024C38.5217 9.136 38.3857 9.192 38.2257 9.192H35.8977C35.2417 9.192 34.7297 9.376 34.3617 9.744C34.0097 10.096 33.8337 10.6 33.8337 11.256V17.4C33.8337 17.576 33.7697 17.72 33.6417 17.832C33.5297 17.944 33.3857 18 33.2097 18H30.2337ZM41.2628 18C41.0868 18 40.9428 17.944 40.8308 17.832C40.7188 17.72 40.6628 17.576 40.6628 17.4V1.8C40.6628 1.624 40.7188 1.48 40.8308 1.368C40.9428 1.256 41.0868 1.2 41.2628 1.2H48.5828C49.9588 1.2 51.0868 1.392 51.9668 1.776C52.8468 2.16 53.4948 2.712 53.9108 3.432C54.3428 4.136 54.5588 4.976 54.5588 5.952C54.5588 6.528 54.4468 7.04 54.2228 7.488C54.0148 7.92 53.7508 8.28 53.4308 8.568C53.1268 8.856 52.8388 9.064 52.5668 9.192C53.1748 9.48 53.7108 9.952 54.1748 10.608C54.6548 11.264 54.8948 12.032 54.8948 12.912C54.8948 13.968 54.6548 14.88 54.1748 15.648C53.7108 16.4 53.0228 16.984 52.1108 17.4C51.2148 17.8 50.1108 18 48.7988 18H41.2628ZM44.9588 14.88H48.3188C49.0068 14.88 49.5268 14.68 49.8788 14.28C50.2308 13.88 50.4068 13.424 50.4068 12.912C50.4068 12.352 50.2228 11.88 49.8548 11.496C49.5028 11.112 48.9908 10.92 48.3188 10.92H44.9588V14.88ZM44.9588 7.872H48.1028C48.7588 7.872 49.2468 7.704 49.5668 7.368C49.9028 7.032 50.0708 6.6 50.0708 6.072C50.0708 5.56 49.9028 5.144 49.5668 4.824C49.2468 4.488 48.7588 4.32 48.1028 4.32H44.9588V7.872ZM61.7479 18.24C60.8359 18.24 60.0199 18.032 59.2999 17.616C58.5959 17.2 58.0439 16.592 57.6439 15.792C57.2439 14.976 57.0439 13.984 57.0439 12.816V6.12C57.0439 5.944 57.0999 5.8 57.2119 5.688C57.3239 5.576 57.4679 5.52 57.6439 5.52H60.6439C60.8199 5.52 60.9639 5.576 61.0759 5.688C61.1879 5.8 61.2439 5.944 61.2439 6.12V12.672C61.2439 14.24 61.9479 15.024 63.3559 15.024C64.0119 15.024 64.5319 14.824 64.9159 14.424C65.3159 14.008 65.5159 13.424 65.5159 12.672V6.12C65.5159 5.944 65.5719 5.8 65.6839 5.688C65.7959 5.576 65.9399 5.52 66.1159 5.52H69.1159C69.2919 5.52 69.4359 5.576 69.5479 5.688C69.6599 5.8 69.7159 5.944 69.7159 6.12V17.4C69.7159 17.576 69.6599 17.72 69.5479 17.832C69.4359 17.944 69.2919 18 69.1159 18H66.3319C66.1719 18 66.0279 17.944 65.8999 17.832C65.7879 17.72 65.7319 17.576 65.7319 17.4V16.488C65.3159 17.064 64.7719 17.504 64.0999 17.808C63.4439 18.096 62.6599 18.24 61.7479 18.24ZM77.0616 18.24C76.2936 18.24 75.5976 18.12 74.9736 17.88C74.3656 17.624 73.8376 17.256 73.3896 16.776C72.9576 16.28 72.6216 15.688 72.3816 15C72.1416 14.296 72.0056 13.496 71.9736 12.6C71.9576 12.28 71.9496 12 71.9496 11.76C71.9496 11.504 71.9576 11.224 71.9736 10.92C72.0056 10.056 72.1416 9.28 72.3816 8.592C72.6216 7.904 72.9576 7.312 73.3896 6.816C73.8216 6.32 74.3496 5.944 74.9736 5.688C75.5976 5.416 76.2936 5.28 77.0616 5.28C77.8616 5.28 78.5496 5.416 79.1256 5.688C79.7016 5.944 80.1896 6.28 80.5896 6.696V1.56C80.5896 1.384 80.6456 1.24 80.7576 1.128C80.8696 1.016 81.0136 0.959999 81.1896 0.959999H84.1176C84.2776 0.959999 84.4136 1.016 84.5256 1.128C84.6536 1.24 84.7176 1.384 84.7176 1.56V17.4C84.7176 17.576 84.6536 17.72 84.5256 17.832C84.4136 17.944 84.2776 18 84.1176 18H81.4056C81.2296 18 81.0856 17.944 80.9736 17.832C80.8616 17.72 80.8056 17.576 80.8056 17.4V16.632C80.4216 17.096 79.9256 17.48 79.3176 17.784C78.7096 18.088 77.9576 18.24 77.0616 18.24ZM78.3576 15.024C78.9016 15.024 79.3256 14.912 79.6296 14.688C79.9496 14.448 80.1816 14.144 80.3256 13.776C80.4856 13.408 80.5736 13.008 80.5896 12.576C80.6056 12.256 80.6136 11.952 80.6136 11.664C80.6136 11.376 80.6056 11.08 80.5896 10.776C80.5736 10.376 80.4856 10.008 80.3256 9.672C80.1656 9.32 79.9256 9.04 79.6056 8.832C79.2856 8.608 78.8696 8.496 78.3576 8.496C77.8296 8.496 77.4056 8.608 77.0856 8.832C76.7816 9.056 76.5656 9.36 76.4376 9.744C76.3096 10.128 76.2296 10.552 76.1976 11.016C76.1496 11.512 76.1496 12.008 76.1976 12.504C76.2296 12.968 76.3096 13.392 76.4376 13.776C76.5656 14.16 76.7816 14.464 77.0856 14.688C77.4056 14.912 77.8296 15.024 78.3576 15.024ZM92.5489 18.24C91.5089 18.24 90.6209 18.128 89.8849 17.904C89.1649 17.664 88.5729 17.376 88.1089 17.04C87.6609 16.704 87.3249 16.36 87.1009 16.008C86.8769 15.64 86.7569 15.328 86.7409 15.072C86.7249 14.896 86.7809 14.752 86.9089 14.64C87.0369 14.512 87.1729 14.448 87.3169 14.448H90.0529C90.1009 14.448 90.1409 14.456 90.1729 14.472C90.2049 14.488 90.2529 14.52 90.3169 14.568C90.5249 14.68 90.7329 14.824 90.9409 15C91.1489 15.16 91.3889 15.304 91.6609 15.432C91.9329 15.56 92.2609 15.624 92.6449 15.624C93.0929 15.624 93.4689 15.536 93.7729 15.36C94.0769 15.184 94.2289 14.92 94.2289 14.568C94.2289 14.312 94.1569 14.104 94.0129 13.944C93.8689 13.768 93.5729 13.6 93.1249 13.44C92.6929 13.28 92.0369 13.12 91.1569 12.96C90.3249 12.768 89.5969 12.52 88.9729 12.216C88.3489 11.896 87.8689 11.488 87.5329 10.992C87.1969 10.48 87.0289 9.864 87.0289 9.144C87.0289 8.504 87.2369 7.888 87.6529 7.296C88.0689 6.704 88.6769 6.224 89.4769 5.856C90.2769 5.472 91.2609 5.28 92.4289 5.28C93.3569 5.28 94.1569 5.392 94.8289 5.616C95.5169 5.824 96.0929 6.096 96.5569 6.432C97.0369 6.768 97.3969 7.112 97.6369 7.464C97.8769 7.816 98.0049 8.136 98.0209 8.424C98.0369 8.584 97.9889 8.728 97.8769 8.856C97.7649 8.968 97.6369 9.024 97.4929 9.024H94.9969C94.9329 9.024 94.8689 9.016 94.8049 9C94.7409 8.968 94.6849 8.936 94.6369 8.904C94.4449 8.808 94.2529 8.68 94.0609 8.52C93.8689 8.36 93.6449 8.216 93.3889 8.088C93.1329 7.96 92.8129 7.896 92.4289 7.896C91.9969 7.896 91.6609 7.992 91.4209 8.184C91.1809 8.376 91.0609 8.624 91.0609 8.928C91.0609 9.136 91.1249 9.328 91.2529 9.504C91.3969 9.68 91.6769 9.84 92.0929 9.984C92.5249 10.128 93.1889 10.288 94.0849 10.464C95.1889 10.64 96.0689 10.928 96.7249 11.328C97.3809 11.712 97.8449 12.168 98.1169 12.696C98.3889 13.208 98.5249 13.752 98.5249 14.328C98.5249 15.096 98.2929 15.776 97.8289 16.368C97.3809 16.96 96.7089 17.424 95.8129 17.76C94.9169 18.08 93.8289 18.24 92.5489 18.24ZM101.409 18C101.233 18 101.089 17.944 100.977 17.832C100.865 17.72 100.809 17.576 100.809 17.4V1.8C100.809 1.624 100.865 1.48 100.977 1.368C101.089 1.256 101.233 1.2 101.409 1.2H108.129C109.457 1.2 110.609 1.408 111.585 1.824C112.577 2.224 113.345 2.832 113.889 3.648C114.449 4.464 114.729 5.496 114.729 6.744C114.729 7.976 114.449 8.992 113.889 9.792C113.345 10.592 112.577 11.184 111.585 11.568C110.609 11.952 109.457 12.144 108.129 12.144H105.273V17.4C105.273 17.576 105.209 17.72 105.081 17.832C104.969 17.944 104.825 18 104.649 18H101.409ZM105.201 8.832H108.009C108.697 8.832 109.241 8.656 109.641 8.304C110.057 7.952 110.265 7.416 110.265 6.696C110.265 6.088 110.089 5.576 109.737 5.16C109.385 4.744 108.809 4.536 108.009 4.536H105.201V8.832ZM117.231 18C117.055 18 116.911 17.944 116.799 17.832C116.687 17.72 116.631 17.576 116.631 17.4V6.12C116.631 5.96 116.687 5.824 116.799 5.712C116.911 5.584 117.055 5.52 117.231 5.52H119.991C120.167 5.52 120.311 5.584 120.423 5.712C120.535 5.824 120.591 5.96 120.591 6.12V7.08C121.023 6.584 121.535 6.2 122.127 5.928C122.735 5.656 123.415 5.52 124.167 5.52H125.223C125.383 5.52 125.519 5.576 125.631 5.688C125.759 5.8 125.823 5.944 125.823 6.12V8.592C125.823 8.752 125.759 8.896 125.631 9.024C125.519 9.136 125.383 9.192 125.223 9.192H122.895C122.239 9.192 121.727 9.376 121.359 9.744C121.007 10.096 120.831 10.6 120.831 11.256V17.4C120.831 17.576 120.767 17.72 120.639 17.832C120.527 17.944 120.383 18 120.207 18H117.231ZM133.206 18.24C131.862 18.24 130.726 18.024 129.798 17.592C128.886 17.16 128.182 16.544 127.686 15.744C127.206 14.928 126.934 13.96 126.87 12.84C126.854 12.52 126.846 12.16 126.846 11.76C126.846 11.344 126.854 10.984 126.87 10.68C126.934 9.544 127.222 8.576 127.734 7.776C128.246 6.976 128.958 6.36 129.87 5.928C130.798 5.496 131.91 5.28 133.206 5.28C134.518 5.28 135.63 5.496 136.542 5.928C137.47 6.36 138.19 6.976 138.702 7.776C139.214 8.576 139.502 9.544 139.566 10.68C139.582 10.984 139.59 11.344 139.59 11.76C139.59 12.16 139.582 12.52 139.566 12.84C139.502 13.96 139.222 14.928 138.726 15.744C138.246 16.544 137.542 17.16 136.614 17.592C135.702 18.024 134.566 18.24 133.206 18.24ZM133.206 15.312C133.926 15.312 134.446 15.096 134.766 14.664C135.102 14.232 135.294 13.584 135.342 12.72C135.358 12.48 135.366 12.16 135.366 11.76C135.366 11.36 135.358 11.04 135.342 10.8C135.294 9.952 135.102 9.312 134.766 8.88C134.446 8.432 133.926 8.208 133.206 8.208C132.502 8.208 131.982 8.432 131.646 8.88C131.31 9.312 131.126 9.952 131.094 10.8C131.078 11.04 131.07 11.36 131.07 11.76C131.07 12.16 131.078 12.48 131.094 12.72C131.126 13.584 131.31 14.232 131.646 14.664C131.982 15.096 132.502 15.312 133.206 15.312Z" fill="#161C2D"/>
</svg>
