<svg width="140" height="18" viewBox="0 0 140 18" fill="none" xmlns="http://www.w3.org/2000/svg">
<path d="M1.28 17.5C1.104 17.5 0.96 17.444 0.848 17.332C0.736 17.22 0.68 17.076 0.68 16.9V1.3C0.68 1.124 0.736 0.979999 0.848 0.868C0.96 0.755999 1.104 0.699999 1.28 0.699999H12.488C12.664 0.699999 12.808 0.755999 12.92 0.868C13.032 0.979999 13.088 1.124 13.088 1.3V3.556C13.088 3.732 13.032 3.876 12.92 3.988C12.808 4.1 12.664 4.156 12.488 4.156H4.832V7.396H11.96C12.136 7.396 12.28 7.46 12.392 7.588C12.504 7.7 12.56 7.844 12.56 8.02V10.108C12.56 10.268 12.504 10.412 12.392 10.54C12.28 10.652 12.136 10.708 11.96 10.708H4.832V14.044H12.68C12.856 14.044 13 14.1 13.112 14.212C13.224 14.324 13.28 14.468 13.28 14.644V16.9C13.28 17.076 13.224 17.22 13.112 17.332C13 17.444 12.856 17.5 12.68 17.5H1.28ZM19.3548 17.74C18.4908 17.74 17.7148 17.58 17.0268 17.26C16.3548 16.924 15.8188 16.476 15.4188 15.916C15.0188 15.356 14.8188 14.724 14.8188 14.02C14.8188 12.884 15.2828 11.988 16.2108 11.332C17.1388 10.66 18.3708 10.204 19.9068 9.964L22.9068 9.508V9.172C22.9068 8.596 22.7868 8.156 22.5468 7.852C22.3068 7.548 21.8668 7.396 21.2268 7.396C20.7788 7.396 20.4108 7.484 20.1228 7.66C19.8508 7.836 19.6348 8.076 19.4748 8.38C19.3308 8.588 19.1308 8.692 18.8748 8.692H16.1868C16.0108 8.692 15.8748 8.644 15.7788 8.548C15.6828 8.436 15.6428 8.308 15.6588 8.164C15.6588 7.876 15.7628 7.548 15.9708 7.18C16.1948 6.796 16.5308 6.42 16.9788 6.052C17.4268 5.684 18.0028 5.38 18.7068 5.14C19.4108 4.9 20.2588 4.78 21.2508 4.78C22.2908 4.78 23.1788 4.9 23.9148 5.14C24.6508 5.38 25.2428 5.716 25.6908 6.148C26.1548 6.58 26.4988 7.092 26.7228 7.684C26.9468 8.26 27.0588 8.9 27.0588 9.604V16.9C27.0588 17.076 26.9948 17.22 26.8668 17.332C26.7548 17.444 26.6188 17.5 26.4588 17.5H23.6748C23.4988 17.5 23.3548 17.444 23.2428 17.332C23.1308 17.22 23.0748 17.076 23.0748 16.9V16.06C22.8668 16.364 22.5868 16.644 22.2348 16.9C21.8828 17.156 21.4668 17.356 20.9868 17.5C20.5228 17.66 19.9788 17.74 19.3548 17.74ZM20.4828 15.004C20.9468 15.004 21.3628 14.908 21.7308 14.716C22.1148 14.508 22.4108 14.196 22.6188 13.78C22.8428 13.348 22.9548 12.812 22.9548 12.172V11.836L20.9148 12.196C20.1628 12.324 19.6108 12.524 19.2588 12.796C18.9228 13.052 18.7548 13.356 18.7548 13.708C18.7548 13.98 18.8348 14.212 18.9948 14.404C19.1548 14.596 19.3628 14.748 19.6188 14.86C19.8748 14.956 20.1628 15.004 20.4828 15.004ZM30.2337 17.5C30.0577 17.5 29.9137 17.444 29.8017 17.332C29.6897 17.22 29.6337 17.076 29.6337 16.9V5.62C29.6337 5.46 29.6897 5.324 29.8017 5.212C29.9137 5.084 30.0577 5.02 30.2337 5.02H32.9937C33.1697 5.02 33.3137 5.084 33.4257 5.212C33.5377 5.324 33.5937 5.46 33.5937 5.62V6.58C34.0257 6.084 34.5377 5.7 35.1297 5.428C35.7377 5.156 36.4177 5.02 37.1697 5.02H38.2257C38.3857 5.02 38.5217 5.076 38.6337 5.188C38.7617 5.3 38.8257 5.444 38.8257 5.62V8.092C38.8257 8.252 38.7617 8.396 38.6337 8.524C38.5217 8.636 38.3857 8.692 38.2257 8.692H35.8977C35.2417 8.692 34.7297 8.876 34.3617 9.244C34.0097 9.596 33.8337 10.1 33.8337 10.756V16.9C33.8337 17.076 33.7697 17.22 33.6417 17.332C33.5297 17.444 33.3857 17.5 33.2097 17.5H30.2337ZM41.2628 17.5C41.0868 17.5 40.9428 17.444 40.8308 17.332C40.7188 17.22 40.6628 17.076 40.6628 16.9V1.3C40.6628 1.124 40.7188 0.979999 40.8308 0.868C40.9428 0.755999 41.0868 0.699999 41.2628 0.699999H48.5828C49.9588 0.699999 51.0868 0.891999 51.9668 1.276C52.8468 1.66 53.4948 2.212 53.9108 2.932C54.3428 3.636 54.5588 4.476 54.5588 5.452C54.5588 6.028 54.4468 6.54 54.2228 6.988C54.0148 7.42 53.7508 7.78 53.4308 8.068C53.1268 8.356 52.8388 8.564 52.5668 8.692C53.1748 8.98 53.7108 9.452 54.1748 10.108C54.6548 10.764 54.8948 11.532 54.8948 12.412C54.8948 13.468 54.6548 14.38 54.1748 15.148C53.7108 15.9 53.0228 16.484 52.1108 16.9C51.2148 17.3 50.1108 17.5 48.7988 17.5H41.2628ZM44.9588 14.38H48.3188C49.0068 14.38 49.5268 14.18 49.8788 13.78C50.2308 13.38 50.4068 12.924 50.4068 12.412C50.4068 11.852 50.2228 11.38 49.8548 10.996C49.5028 10.612 48.9908 10.42 48.3188 10.42H44.9588V14.38ZM44.9588 7.372H48.1028C48.7588 7.372 49.2468 7.204 49.5668 6.868C49.9028 6.532 50.0708 6.1 50.0708 5.572C50.0708 5.06 49.9028 4.644 49.5668 4.324C49.2468 3.988 48.7588 3.82 48.1028 3.82H44.9588V7.372ZM61.7479 17.74C60.8359 17.74 60.0199 17.532 59.2999 17.116C58.5959 16.7 58.0439 16.092 57.6439 15.292C57.2439 14.476 57.0439 13.484 57.0439 12.316V5.62C57.0439 5.444 57.0999 5.3 57.2119 5.188C57.3239 5.076 57.4679 5.02 57.6439 5.02H60.6439C60.8199 5.02 60.9639 5.076 61.0759 5.188C61.1879 5.3 61.2439 5.444 61.2439 5.62V12.172C61.2439 13.74 61.9479 14.524 63.3559 14.524C64.0119 14.524 64.5319 14.324 64.9159 13.924C65.3159 13.508 65.5159 12.924 65.5159 12.172V5.62C65.5159 5.444 65.5719 5.3 65.6839 5.188C65.7959 5.076 65.9399 5.02 66.1159 5.02H69.1159C69.2919 5.02 69.4359 5.076 69.5479 5.188C69.6599 5.3 69.7159 5.444 69.7159 5.62V16.9C69.7159 17.076 69.6599 17.22 69.5479 17.332C69.4359 17.444 69.2919 17.5 69.1159 17.5H66.3319C66.1719 17.5 66.0279 17.444 65.8999 17.332C65.7879 17.22 65.7319 17.076 65.7319 16.9V15.988C65.3159 16.564 64.7719 17.004 64.0999 17.308C63.4439 17.596 62.6599 17.74 61.7479 17.74ZM77.0616 17.74C76.2936 17.74 75.5976 17.62 74.9736 17.38C74.3656 17.124 73.8376 16.756 73.3896 16.276C72.9576 15.78 72.6216 15.188 72.3816 14.5C72.1416 13.796 72.0056 12.996 71.9736 12.1C71.9576 11.78 71.9496 11.5 71.9496 11.26C71.9496 11.004 71.9576 10.724 71.9736 10.42C72.0056 9.556 72.1416 8.78 72.3816 8.092C72.6216 7.404 72.9576 6.812 73.3896 6.316C73.8216 5.82 74.3496 5.444 74.9736 5.188C75.5976 4.916 76.2936 4.78 77.0616 4.78C77.8616 4.78 78.5496 4.916 79.1256 5.188C79.7016 5.444 80.1896 5.78 80.5896 6.196V1.06C80.5896 0.883999 80.6456 0.739999 80.7576 0.628C80.8696 0.515999 81.0136 0.459999 81.1896 0.459999H84.1176C84.2776 0.459999 84.4136 0.515999 84.5256 0.628C84.6536 0.739999 84.7176 0.883999 84.7176 1.06V16.9C84.7176 17.076 84.6536 17.22 84.5256 17.332C84.4136 17.444 84.2776 17.5 84.1176 17.5H81.4056C81.2296 17.5 81.0856 17.444 80.9736 17.332C80.8616 17.22 80.8056 17.076 80.8056 16.9V16.132C80.4216 16.596 79.9256 16.98 79.3176 17.284C78.7096 17.588 77.9576 17.74 77.0616 17.74ZM78.3576 14.524C78.9016 14.524 79.3256 14.412 79.6296 14.188C79.9496 13.948 80.1816 13.644 80.3256 13.276C80.4856 12.908 80.5736 12.508 80.5896 12.076C80.6056 11.756 80.6136 11.452 80.6136 11.164C80.6136 10.876 80.6056 10.58 80.5896 10.276C80.5736 9.876 80.4856 9.508 80.3256 9.172C80.1656 8.82 79.9256 8.54 79.6056 8.332C79.2856 8.108 78.8696 7.996 78.3576 7.996C77.8296 7.996 77.4056 8.108 77.0856 8.332C76.7816 8.556 76.5656 8.86 76.4376 9.244C76.3096 9.628 76.2296 10.052 76.1976 10.516C76.1496 11.012 76.1496 11.508 76.1976 12.004C76.2296 12.468 76.3096 12.892 76.4376 13.276C76.5656 13.66 76.7816 13.964 77.0856 14.188C77.4056 14.412 77.8296 14.524 78.3576 14.524ZM92.5489 17.74C91.5089 17.74 90.6209 17.628 89.8849 17.404C89.1649 17.164 88.5729 16.876 88.1089 16.54C87.6609 16.204 87.3249 15.86 87.1009 15.508C86.8769 15.14 86.7569 14.828 86.7409 14.572C86.7249 14.396 86.7809 14.252 86.9089 14.14C87.0369 14.012 87.1729 13.948 87.3169 13.948H90.0529C90.1009 13.948 90.1409 13.956 90.1729 13.972C90.2049 13.988 90.2529 14.02 90.3169 14.068C90.5249 14.18 90.7329 14.324 90.9409 14.5C91.1489 14.66 91.3889 14.804 91.6609 14.932C91.9329 15.06 92.2609 15.124 92.6449 15.124C93.0929 15.124 93.4689 15.036 93.7729 14.86C94.0769 14.684 94.2289 14.42 94.2289 14.068C94.2289 13.812 94.1569 13.604 94.0129 13.444C93.8689 13.268 93.5729 13.1 93.1249 12.94C92.6929 12.78 92.0369 12.62 91.1569 12.46C90.3249 12.268 89.5969 12.02 88.9729 11.716C88.3489 11.396 87.8689 10.988 87.5329 10.492C87.1969 9.98 87.0289 9.364 87.0289 8.644C87.0289 8.004 87.2369 7.388 87.6529 6.796C88.0689 6.204 88.6769 5.724 89.4769 5.356C90.2769 4.972 91.2609 4.78 92.4289 4.78C93.3569 4.78 94.1569 4.892 94.8289 5.116C95.5169 5.324 96.0929 5.596 96.5569 5.932C97.0369 6.268 97.3969 6.612 97.6369 6.964C97.8769 7.316 98.0049 7.636 98.0209 7.924C98.0369 8.084 97.9889 8.228 97.8769 8.356C97.7649 8.468 97.6369 8.524 97.4929 8.524H94.9969C94.9329 8.524 94.8689 8.516 94.8049 8.5C94.7409 8.468 94.6849 8.436 94.6369 8.404C94.4449 8.308 94.2529 8.18 94.0609 8.02C93.8689 7.86 93.6449 7.716 93.3889 7.588C93.1329 7.46 92.8129 7.396 92.4289 7.396C91.9969 7.396 91.6609 7.492 91.4209 7.684C91.1809 7.876 91.0609 8.124 91.0609 8.428C91.0609 8.636 91.1249 8.828 91.2529 9.004C91.3969 9.18 91.6769 9.34 92.0929 9.484C92.5249 9.628 93.1889 9.788 94.0849 9.964C95.1889 10.14 96.0689 10.428 96.7249 10.828C97.3809 11.212 97.8449 11.668 98.1169 12.196C98.3889 12.708 98.5249 13.252 98.5249 13.828C98.5249 14.596 98.2929 15.276 97.8289 15.868C97.3809 16.46 96.7089 16.924 95.8129 17.26C94.9169 17.58 93.8289 17.74 92.5489 17.74ZM101.409 17.5C101.233 17.5 101.089 17.444 100.977 17.332C100.865 17.22 100.809 17.076 100.809 16.9V1.3C100.809 1.124 100.865 0.979999 100.977 0.868C101.089 0.755999 101.233 0.699999 101.409 0.699999H108.129C109.457 0.699999 110.609 0.907999 111.585 1.324C112.577 1.724 113.345 2.332 113.889 3.148C114.449 3.964 114.729 4.996 114.729 6.244C114.729 7.476 114.449 8.492 113.889 9.292C113.345 10.092 112.577 10.684 111.585 11.068C110.609 11.452 109.457 11.644 108.129 11.644H105.273V16.9C105.273 17.076 105.209 17.22 105.081 17.332C104.969 17.444 104.825 17.5 104.649 17.5H101.409ZM105.201 8.332H108.009C108.697 8.332 109.241 8.156 109.641 7.804C110.057 7.452 110.265 6.916 110.265 6.196C110.265 5.588 110.089 5.076 109.737 4.66C109.385 4.244 108.809 4.036 108.009 4.036H105.201V8.332ZM117.231 17.5C117.055 17.5 116.911 17.444 116.799 17.332C116.687 17.22 116.631 17.076 116.631 16.9V5.62C116.631 5.46 116.687 5.324 116.799 5.212C116.911 5.084 117.055 5.02 117.231 5.02H119.991C120.167 5.02 120.311 5.084 120.423 5.212C120.535 5.324 120.591 5.46 120.591 5.62V6.58C121.023 6.084 121.535 5.7 122.127 5.428C122.735 5.156 123.415 5.02 124.167 5.02H125.223C125.383 5.02 125.519 5.076 125.631 5.188C125.759 5.3 125.823 5.444 125.823 5.62V8.092C125.823 8.252 125.759 8.396 125.631 8.524C125.519 8.636 125.383 8.692 125.223 8.692H122.895C122.239 8.692 121.727 8.876 121.359 9.244C121.007 9.596 120.831 10.1 120.831 10.756V16.9C120.831 17.076 120.767 17.22 120.639 17.332C120.527 17.444 120.383 17.5 120.207 17.5H117.231ZM133.206 17.74C131.862 17.74 130.726 17.524 129.798 17.092C128.886 16.66 128.182 16.044 127.686 15.244C127.206 14.428 126.934 13.46 126.87 12.34C126.854 12.02 126.846 11.66 126.846 11.26C126.846 10.844 126.854 10.484 126.87 10.18C126.934 9.044 127.222 8.076 127.734 7.276C128.246 6.476 128.958 5.86 129.87 5.428C130.798 4.996 131.91 4.78 133.206 4.78C134.518 4.78 135.63 4.996 136.542 5.428C137.47 5.86 138.19 6.476 138.702 7.276C139.214 8.076 139.502 9.044 139.566 10.18C139.582 10.484 139.59 10.844 139.59 11.26C139.59 11.66 139.582 12.02 139.566 12.34C139.502 13.46 139.222 14.428 138.726 15.244C138.246 16.044 137.542 16.66 136.614 17.092C135.702 17.524 134.566 17.74 133.206 17.74ZM133.206 14.812C133.926 14.812 134.446 14.596 134.766 14.164C135.102 13.732 135.294 13.084 135.342 12.22C135.358 11.98 135.366 11.66 135.366 11.26C135.366 10.86 135.358 10.54 135.342 10.3C135.294 9.452 135.102 8.812 134.766 8.38C134.446 7.932 133.926 7.708 133.206 7.708C132.502 7.708 131.982 7.932 131.646 8.38C131.31 8.812 131.126 9.452 131.094 10.3C131.078 10.54 131.07 10.86 131.07 11.26C131.07 11.66 131.078 11.98 131.094 12.22C131.126 13.084 131.31 13.732 131.646 14.164C131.982 14.596 132.502 14.812 133.206 14.812Z" fill="white"/>
</svg>
